<svg width="107" height="57" viewBox="0 0 107 57" fill="none" xmlns="http://www.w3.org/2000/svg">
<path d="M14.5798 33.2682C15.2534 30.9453 14.0987 28.5448 12.8397 26.3836C10.1452 21.7765 6.84125 17.4089 3 13.3648C10.5141 15.8171 16.3281 21.3882 18.0522 27.7748C19.5037 24.7918 19.2631 21.4012 18.0282 18.36C16.7932 15.3188 14.636 12.5753 12.2783 10C16.8573 10.5501 20.5543 13.4942 22.5591 16.8654C24.5639 20.2365 25.1413 24.0218 25.7027 27.7294C26.2801 21.6924 31.4525 16.0953 38.4533 13.9212C36.272 16.6712 34.0829 19.4471 32.6153 22.4883C31.1478 25.5295 30.4341 28.8942 31.3082 32.0841" stroke="#5E3222" stroke-width="1.21212" stroke-miterlimit="10"/>
<path d="M53.5798 56.2682C54.2534 53.9453 53.0987 51.5448 51.8397 49.3836C49.1452 44.7765 45.8412 40.4089 42 36.3648C49.5141 38.8171 55.3281 44.3882 57.0522 50.7748C58.5037 47.7918 58.2631 44.4012 57.0282 41.36C55.7932 38.3188 53.636 35.5753 51.2783 33C55.8573 33.5501 59.5543 36.4942 61.5591 39.8654C63.5639 43.2365 64.1413 47.0218 64.7027 50.7294C65.2801 44.6924 70.4525 39.0953 77.4533 36.9212C75.272 39.6712 73.0829 42.4471 71.6153 45.4883C70.1478 48.5295 69.4341 51.8942 70.3082 55.0841" stroke="#5E3222" stroke-width="1.21212" stroke-miterlimit="10"/>
<path d="M80.5798 24.2682C81.2534 21.9453 80.0987 19.5448 78.8397 17.3836C76.1452 12.7765 72.8412 8.40886 69 4.36478C76.5141 6.81708 82.3281 12.3882 84.0522 18.7748C85.5037 15.7918 85.2631 12.4012 84.0282 9.36003C82.7932 6.31884 80.636 3.5753 78.2783 1C82.8573 1.55005 86.5543 4.49418 88.5591 7.86537C90.5639 11.2365 91.1413 15.0218 91.7027 18.7294C92.2801 12.6924 97.4525 7.09535 104.453 4.92124C102.272 7.67119 100.083 10.4471 98.6153 13.4883C97.1478 16.5295 96.4341 19.8942 97.3082 23.0841" stroke="#5E3222" stroke-width="1.21212" stroke-miterlimit="10"/>
</svg>
